<svg id="Layer_1" enable-background="new 0 0 480.015 480.015" height="512" viewBox="0 0 480.015 480.015" width="512" xmlns="http://www.w3.org/2000/svg"><g id="XMLID_3099_"><circle id="XMLID_3132_" cx="240.008" cy="240.008" r="45"/><path id="XMLID_3124_" d="m240.008 135.008c-57.897 0-105 47.104-105 105 0 57.897 47.103 105 105 105s105-47.103 105-105-47.102-105-105-105zm0 180c-41.356 0-75-33.645-75-75s33.644-75 75-75c41.355 0 75 33.645 75 75s-33.644 75-75 75z"/><path id="XMLID_3121_" d="m331.602 140.966 134.808 19.258c-17.577-49.874-51.169-92.186-94.599-120.784l-2.803 2.568-91.2 68.4c20.319 5.936 38.652 16.545 53.794 30.558z"/><path id="XMLID_3118_" d="m475.03 191.217h-3.797l-112.899-16.128c9.842 17.862 15.754 38.177 16.568 59.776l81.604 108.807c23.425-48.82 28.813-102.696 18.524-152.455z"/><path id="XMLID_3115_" d="m148.408 339.049-134.8-19.257c17.534 49.755 51.006 91.985 94.284 120.58 107.263-80.478 93.006-69.78 94.318-70.766-20.321-5.934-38.658-16.543-53.802-30.557z"/><path id="XMLID_3112_" d="m136.343 456.506c49.018 23.52 102.613 28.654 151.647 18.688l.808-3.961 16.128-112.898c-17.862 9.842-38.176 15.752-59.775 16.567z"/><path id="XMLID_3109_" d="m369.609 277.809c-5.936 20.317-16.546 38.65-30.559 53.793l-19.258 134.807c49.846-17.566 92.138-51.129 120.735-94.522l-2.519-2.878z"/><path id="XMLID_3106_" d="m105.115 245.151-81.605-108.807c-22.944 47.818-28.972 101.432-18.618 151.999l3.892.455 112.886 16.126c-9.838-17.861-15.742-38.177-16.555-59.773z"/><path id="XMLID_3103_" d="m110.419 202.221c5.938-20.33 16.527-38.693 30.553-53.842l19.252-134.76c-49.662 17.502-91.837 50.867-120.429 94.026l2.214 3.362z"/><path id="XMLID_3100_" d="m343.673 23.51c-47.833-22.95-101.446-28.972-152.012-18.616l-.443 3.89-16.128 112.898c17.865-9.842 38.181-15.76 59.784-16.572z"/></g></svg>